<?xml version="1.0" standalone="no"?>
<!DOCTYPE svg PUBLIC "-//W3C//DTD SVG 20010904//EN"
 "http://www.w3.org/TR/2001/REC-SVG-20010904/DTD/svg10.dtd">
<svg version="1.0" xmlns="http://www.w3.org/2000/svg"
 width="1080.000000pt" height="1080.000000pt" viewBox="0 0 1080.000000 1080.000000"
 preserveAspectRatio="xMidYMid meet">
<metadata>
Created by potrace 1.14, written by Peter Selinger 2001-2017
</metadata>
<g transform="translate(0.000000,1080.000000) scale(0.100000,-0.100000)"
fill="#000000" stroke="none">
<path d="M4978 8325 c-2 -1 -34 -5 -73 -8 -246 -21 -568 -133 -790 -275 -467
-298 -780 -800 -841 -1349 -4 -32 -7 -137 -8 -233 l-2 -175 -51 -90 c-63 -112
-87 -155 -153 -275 -29 -52 -57 -102 -64 -110 -6 -8 -21 -33 -33 -55 -11 -22
-31 -57 -43 -79 -11 -21 -75 -137 -142 -257 l-120 -219 3 -78 c9 -186 141
-312 347 -332 48 -5 107 -16 130 -24 48 -17 121 -56 123 -65 1 -3 2 -107 3
-231 3 -263 7 -291 52 -388 58 -121 181 -222 309 -253 51 -12 563 -20 570 -9
2 3 71 5 154 5 106 -1 158 -5 176 -15 14 -7 37 -38 53 -69 l27 -56 3 -555 c2
-403 6 -561 15 -579 7 -13 25 -34 40 -45 l28 -21 1314 -1 c1257 -2 1315 -1
1344 17 67 41 66 32 66 457 l0 385 55 19 c247 83 423 278 526 585 23 67 27 97
28 210 2 73 0 137 -4 143 -5 9 -149 16 -222 11 -16 -1 -18 -14 -18 -123 -1
-115 -3 -129 -34 -210 -44 -116 -89 -189 -161 -263 -78 -80 -146 -115 -251
-130 -90 -12 -102 -17 -130 -46 l-29 -30 -3 -390 c-2 -360 -4 -389 -20 -389
-23 -1 -2218 -1 -2263 0 l-37 0 0 448 c-1 246 -3 470 -6 498 -19 171 -106 303
-241 366 -50 23 -54 23 -480 25 -367 2 -436 4 -472 18 -44 17 -106 77 -126
123 -8 18 -13 127 -17 321 l-5 294 -59 53 c-102 93 -264 159 -415 168 -114 7
-144 53 -94 145 23 45 215 391 328 596 103 184 233 423 238 437 3 9 7 106 8
216 1 110 5 224 10 253 5 30 11 72 15 93 15 100 79 288 139 411 164 330 419
580 755 739 95 45 290 109 365 120 22 3 51 8 65 11 65 13 215 17 693 17 l517
1 1 28 c0 16 1 58 1 94 0 36 -1 78 -1 94 l-1 30 -545 -1 c-299 -1 -546 -2
-547 -3z"/>
<path d="M6323 8317 c-11 -18 -10 -217 2 -226 5 -5 61 -9 123 -9 l112 0 0 123
0 123 -115 1 c-77 0 -117 -4 -122 -12z"/>
<path d="M6807 8322 c-3 -6 -1 -217 2 -233 0 -3 55 -6 121 -6 l120 0 0 123 0
122 -120 1 c-66 0 -121 -3 -123 -7z"/>
<path d="M7296 8322 c-2 -4 -3 -59 -3 -122 l2 -115 121 -1 120 -2 0 124 -1
123 -117 0 c-65 0 -120 -4 -122 -7z"/>
<path d="M5020 7718 c-56 -10 -94 -47 -120 -116 -17 -45 -20 -73 -17 -200 2
-130 5 -152 25 -194 27 -56 69 -84 135 -93 93 -13 164 31 194 119 21 64 24
299 3 361 -33 102 -108 144 -220 123z m115 -82 c13 -13 28 -41 34 -62 14 -50
14 -257 0 -309 -27 -106 -144 -123 -190 -28 -20 41 -22 62 -22 177 0 145 11
195 50 226 36 28 97 27 128 -4z"/>
<path d="M5967 7719 c-52 -8 -87 -37 -117 -95 -23 -45 -25 -58 -25 -199 0
-167 12 -220 63 -268 37 -35 69 -46 133 -43 136 6 183 94 176 332 -4 136 -17
187 -59 231 -35 37 -103 54 -171 42z m106 -80 c37 -29 49 -84 48 -230 -1 -182
-26 -233 -117 -233 -44 0 -82 36 -94 90 -12 51 -12 258 0 309 18 78 103 112
163 64z"/>
<path d="M6434 7720 c-51 -11 -90 -46 -113 -101 -44 -102 -32 -368 20 -440 32
-46 97 -72 161 -65 70 8 108 33 137 91 23 43 26 63 29 180 5 160 -8 233 -49
280 -43 48 -116 70 -185 55z m111 -83 c37 -31 51 -97 50 -220 -3 -166 -19
-216 -76 -236 -49 -17 -87 -3 -117 42 -26 39 -27 47 -29 181 -2 153 9 207 48
239 31 25 92 22 124 -6z"/>
<path d="M7367 7715 c-27 -7 -56 -22 -67 -36 -11 -13 -23 -29 -28 -34 -22 -27
-34 -105 -34 -230 -1 -127 7 -169 38 -222 30 -52 72 -75 140 -79 96 -5 158 43
185 141 13 45 16 250 5 310 -22 122 -117 181 -239 150z m134 -86 c28 -37 37
-101 35 -233 -4 -167 -23 -208 -102 -219 -41 -6 -78 16 -100 60 -15 32 -18 62
-18 183 0 203 22 245 123 236 32 -3 49 -11 62 -27z"/>
<path d="M5565 7710 c-11 -5 -54 -21 -95 -36 -41 -15 -79 -31 -84 -36 -9 -8
-18 -68 -11 -68 3 0 26 8 52 19 26 10 60 21 75 25 l27 6 -2 -250 -2 -250 40 0
40 0 0 297 c-1 179 -5 298 -10 299 -6 1 -19 -1 -30 -6z"/>
<path d="M6965 7706 c-16 -7 -63 -25 -102 -40 -71 -27 -73 -29 -73 -62 0 -19
1 -34 3 -34 2 0 32 11 67 25 35 14 67 25 72 25 4 0 8 -112 8 -250 l0 -250 38
0 38 0 0 300 c0 201 -4 300 -11 299 -5 0 -23 -6 -40 -13z"/>
<path d="M5502 6580 c-57 -8 -92 -36 -122 -96 -23 -46 -25 -59 -25 -194 0
-163 11 -213 55 -264 52 -58 159 -71 232 -28 17 10 40 40 56 72 26 53 27 62
27 210 0 145 -2 158 -25 204 -40 80 -101 109 -198 96z m97 -76 c40 -28 51 -72
52 -212 1 -209 -23 -259 -126 -253 -70 4 -95 66 -95 241 0 137 12 192 48 221
30 23 89 25 121 3z"/>
<path d="M6907 6578 c-74 -15 -119 -65 -133 -148 -12 -73 -9 -281 6 -325 30
-92 92 -136 186 -131 70 4 117 34 146 94 21 43 23 60 23 212 0 154 -2 168 -24
211 -37 74 -112 106 -204 87z m90 -64 c13 -4 31 -24 44 -51 19 -39 22 -63 23
-162 1 -210 -19 -258 -109 -266 -32 -4 -73 23 -92 58 -21 39 -29 276 -12 339
19 74 70 102 146 82z"/>
<path d="M5010 6539 c-104 -39 -105 -40 -107 -74 -2 -19 -1 -35 1 -35 2 0 34
11 70 25 37 14 70 25 74 25 4 0 7 -111 7 -247 l0 -248 38 -3 37 -3 0 300 c0
166 -3 301 -7 300 -5 0 -55 -18 -113 -40z"/>
<path d="M5958 6541 c-53 -20 -100 -40 -105 -44 -7 -8 -13 -67 -6 -67 1 0 32
11 69 25 36 14 70 25 74 25 3 0 7 -100 7 -222 1 -123 2 -236 2 -251 1 -26 4
-28 38 -25 l37 3 0 294 c0 179 -4 295 -9 297 -6 1 -54 -15 -107 -35z"/>
<path d="M6495 6566 c-16 -7 -62 -25 -101 -40 -64 -24 -72 -30 -76 -57 -3 -16
-2 -32 2 -34 4 -3 36 7 71 20 34 14 66 25 71 25 4 0 8 -113 8 -251 l0 -250 38
3 37 3 0 294 c0 188 -4 295 -10 297 -5 1 -23 -3 -40 -10z"/>
<path d="M7363 6537 c-103 -40 -103 -40 -103 -75 0 -29 3 -33 18 -27 55 22
126 44 130 40 2 -2 4 -115 3 -250 l-1 -245 40 0 40 0 0 300 c0 234 -3 300 -12
299 -7 -1 -59 -19 -115 -42z"/>
<path d="M4379 5532 c-12 -2 -15 -23 -13 -115 1 -62 2 -116 3 -122 1 -8 99
-11 221 -6 19 1 20 8 20 121 0 118 0 120 -22 121 -121 3 -197 4 -209 1z"/>
<path d="M4860 5532 c-6 -2 -10 -52 -10 -123 l0 -119 83 -1 c45 0 704 0 1464
-1 l1382 0 3 -121 3 -122 110 -1 c61 0 115 1 121 3 14 5 10 264 -5 319 -14 53
-70 117 -126 144 l-44 21 -1486 2 c-817 1 -1490 1 -1495 -1z"/>
<path d="M7782 4678 l3 -123 120 0 120 1 0 119 0 120 -123 3 -123 3 3 -123z"/>
</g>
</svg>
